# xmcd
#
# Track frame offsets: 
#        150
#        12455
#        29483
#        38214
#        51069
#        62663
#        76877
#        88005
#        97544
#        111395
#        129990
#        143465
#
# Disc length: 2169 seconds
#
# Revision: 0
# Processed by: cddbd v1.5.2PL0 Copyright (c) Steve Scherf et al.
# Submitted via: ExactAudioCopy v0.90b4
#
DISCID=8f08770c
DTITLE=Natasha Hurst - Here I Am
DYEAR=2004
DGENRE=Country/Folk
TTITLE0=Lets Pretend
TTITLE1=I Belong
TTITLE2=Here I Am
TTITLE3=Accidental Crime
TTITLE4=An Angel For Me
TTITLE5=Childhood Dreams
TTITLE6=Country Mile
TTITLE7=Just Tell Me Why
TTITLE8=Stand By Me
TTITLE9=When I Need You
TTITLE10=Speechless
TTITLE11=Waltzing The Blues
EXTD=
EXTT0=
EXTT1=
EXTT2=
EXTT3=
EXTT4=
EXTT5=
EXTT6=
EXTT7=
EXTT8=
EXTT9=
EXTT10=
EXTT11=
PLAYORDER=
